<svg xmlns="http://www.w3.org/2000/svg" width="96" height="96" viewBox="0 0 96 96">
    <path fill="#C1A032" fill-rule="nonzero" d="M23.612 59.43c1.033 0 1.87.839 1.87 1.875a1.873 1.873 0 0 1-1.87 1.875 3.745 3.745 0 0 0-3.74 3.75 1.873 1.873 0 0 1-1.87 1.876c-1.033 0-1.87-.84-1.87-1.876 0-4.142 3.349-7.5 7.48-7.5zm64.259 1.35h.037a16.91 16.91 0 0 1-3.729 18.31 16.798 16.798 0 0 1-18.281 3.636A16.877 16.877 0 0 1 55.48 67.23c-.112-.562-.337-1.312-.337-2.137H40.78c-.112.825-.336 1.575-.336 2.137A16.839 16.839 0 0 1 29.93 82.596a16.761 16.761 0 0 1-18.202-3.76 16.873 16.873 0 0 1-3.6-18.281v-.225c4.376-9.94 11.744-26.479 12.604-27.641a12.86 12.86 0 0 1 8.49-4.913l2.02-7.126a5.736 5.736 0 0 1 2.619-3.413 5.635 5.635 0 0 1 4.264-.563 5.725 5.725 0 0 1 3.403 2.626 5.677 5.677 0 0 1 .562 4.275l-2.095 7.726a13.136 13.136 0 0 1 4.19 7.501h7.667a13.137 13.137 0 0 1 4.002-7.5l-2.02-7.914a5.677 5.677 0 0 1 .561-4.276 5.725 5.725 0 0 1 3.404-2.625 5.485 5.485 0 0 1 4.264.562 5.736 5.736 0 0 1 2.618 3.413l1.945 7.314a12.86 12.86 0 0 1 8.64 5.138c.86 1.162 8.229 17.702 12.605 27.64v.226zM57.387 22.413l1.758 6.488c1.176-.58 2.44-.96 3.74-1.125l-1.757-6.338a1.929 1.929 0 1 0-3.226-.893 1.941 1.941 0 0 0-.515 1.868zm7.369 8.888c-5.164 0-9.351 4.198-9.351 9.376 0 .9 1.272 9.376 2.618 17.74 4.481-7.696 14.229-10.463 22.068-6.263-3.628-8.139-7.293-16.202-7.855-17.102a9.193 9.193 0 0 0-7.48-3.75zm-29.923-9.863l-1.87 6.338c1.3.164 2.565.544 3.74 1.125l1.87-6.488a1.941 1.941 0 0 0-.513-1.868 1.929 1.929 0 0 0-3.227.893zM23.725 35.052c-.524.787-4.19 8.85-7.818 16.952 7.84-4.2 17.587-1.433 22.068 6.263 1.197-8.214 2.469-16.727 2.469-17.627-.02-5.12-4.133-9.277-9.239-9.339a9.193 9.193 0 0 0-7.48 3.75zm0 45.005h-.113c6.557-.01 12.095-4.881 12.959-11.398.863-6.517-3.215-12.67-9.542-14.395-6.326-1.726-12.95 1.508-15.498 7.566a13.609 13.609 0 0 0-1.01 5.1c0 3.501 1.395 6.857 3.874 9.322a13.073 13.073 0 0 0 9.33 3.805zm17.691-18.752h13.241c-.935-6.376-2.207-15.002-2.693-18.753h-7.855c-.486 3.75-1.758 12.377-2.693 18.753zM72.35 80.057h-.113c7.23 0 13.092-5.877 13.092-13.127a13.61 13.61 0 0 0-.936-5.1c-2.549-6.062-9.18-9.296-15.51-7.563-6.33 1.733-10.402 7.897-9.526 14.417.877 6.52 6.431 11.382 12.993 11.373zm-.113-20.628c4.132 0 7.481 3.359 7.481 7.501a1.873 1.873 0 0 1-1.87 1.876c-1.033 0-1.87-.84-1.87-1.876a3.745 3.745 0 0 0-3.74-3.75c-1.033 0-1.87-.84-1.87-1.875 0-1.036.837-1.876 1.87-1.876z"/>
</svg>
