<svg xmlns="http://www.w3.org/2000/svg" xmlns:xlink="http://www.w3.org/1999/xlink" width="24" height="30" viewBox="0 0 24 30">
    <defs>
        <path id="a" d="M19.702 25.843c.282 0 .565.072.82.215l7.812 4.419V8.89c0-.335-.202-.557-.334-.557H12c-.133 0-.333.222-.333.557v21.5l7.177-4.309c.265-.158.561-.238.858-.238M10 35a1.667 1.667 0 0 1-1.667-1.667V8.89C8.334 6.745 9.98 5 12.002 5h16c2.021 0 3.666 1.745 3.666 3.89v24.443a1.667 1.667 0 0 1-2.487 1.452l-9.453-5.347-8.87 5.325c-.263.157-.56.237-.856.237"/>
    </defs>
    <use fill="#C1A033" fill-rule="nonzero" transform="translate(-8 -5)" xlink:href="#a"/>
</svg>
