<svg xmlns="http://www.w3.org/2000/svg" width="40" height="40" viewBox="0 0 40 40">
    <path fill="#C1A033" fill-rule="nonzero" d="M13 28.972C8.715 26.13 6.808 20.84 8.304 15.945 9.8 11.05 14.346 7.703 19.5 7.703s9.7 3.347 11.196 8.242c1.496 4.895-.41 10.185-4.696 13.027v4.576C26 37.112 23.09 40 19.5 40S13 37.112 13 33.548v-4.576zm3.51 1.609c-.075-.021-.142-.046-.21-.065-.235-.066-.47-.131-.7-.213v1.955h7.807v-1.952c-.225.079-.456.143-.686.208-.075.021-.148.049-.224.068-.403.103-.811.184-1.223.243a12.334 12.334 0 0 1-1.429.124c-.112.002-.225.021-.339.021-.113 0-.224-.022-.337-.022a12.358 12.358 0 0 1-1.428-.122c-.414-.06-.825-.142-1.231-.245zm2.99 6.838a3.898 3.898 0 0 0 3.66-2.58h-7.32a3.898 3.898 0 0 0 3.66 2.58zm0-27.096c-4.115 0-7.717 2.743-8.782 6.688-1.066 3.946.672 8.11 4.236 10.152.686.4 1.425.704 2.196.903 2.326.607 4.799.287 6.89-.893 3.56-2.045 5.296-6.207 4.234-10.151-1.063-3.945-4.66-6.692-8.774-6.7zM18.2 0h2.6v5.161h-2.6V0zM4.793 6.582l1.838-1.825 3.677 3.65L8.47 10.23l-3.677-3.65zM0 18.065h5.2v2.58H0v-2.58zm4.792 14.062l3.677-3.65 1.839 1.825-3.677 3.65-1.839-1.825zm23.901-1.823l1.838-1.825 3.677 3.65-1.838 1.825-3.677-3.65zm5.107-12.24H39v2.581h-5.2v-2.58zm-5.106-9.658l3.677-3.65 1.838 1.826-3.677 3.65-1.838-1.826z"/>
</svg>
