<svg xmlns="http://www.w3.org/2000/svg" width="96" height="96" viewBox="0 0 96 96">
    <path fill="#C1A032" fill-rule="nonzero" d="M83.532 42.403c3.099 0 5.61 2.506 5.61 5.597v26.118c0 3.09-2.511 5.596-5.61 5.596H12.468c-3.099 0-5.61-2.505-5.61-5.596V48c0-3.09 2.511-5.597 5.61-5.597h2.318l5.536-19.364a9.46 9.46 0 0 1 8.977-6.753H66.7a9.46 9.46 0 0 1 8.977 6.753l5.536 19.364h2.318zM23.95 24.083l-5.274 18.32h58.648l-5.237-18.32a5.608 5.608 0 0 0-5.386-4.066H29.3a5.608 5.608 0 0 0-5.349 4.067zm61.453 50.035V48c0-1.03-.838-1.866-1.87-1.866H12.467c-1.033 0-1.87.836-1.87 1.866v26.118c0 1.03.837 1.865 1.87 1.865h71.064c1.033 0 1.87-.835 1.87-1.865zM25.558 53.597c4.132 0 7.481 3.34 7.481 7.462 0 4.121-3.35 7.462-7.48 7.462-4.132 0-7.481-3.34-7.481-7.462 0-4.121 3.35-7.462 7.48-7.462zm0 11.193c2.066 0 3.74-1.67 3.74-3.731a3.736 3.736 0 0 0-3.74-3.731 3.736 3.736 0 0 0-3.74 3.73 3.736 3.736 0 0 0 3.74 3.732zm44.884-11.193c4.13 0 7.48 3.34 7.48 7.462 0 4.121-3.35 7.462-7.48 7.462-4.132 0-7.481-3.34-7.481-7.462 0-4.121 3.35-7.462 7.48-7.462zm0 11.193c2.065 0 3.74-1.67 3.74-3.731a3.736 3.736 0 0 0-3.74-3.731 3.736 3.736 0 0 0-3.74 3.73 3.736 3.736 0 0 0 3.74 3.732zM55.48 59.193c1.032 0 1.87.836 1.87 1.866 0 1.03-.838 1.865-1.87 1.865H40.519a1.868 1.868 0 0 1-1.87-1.865c0-1.03.838-1.866 1.87-1.866h14.962z"/>
</svg>
