<svg xmlns="http://www.w3.org/2000/svg" width="72" height="72" viewBox="0 0 72 72">
    <path fill="#C1A032" fill-rule="nonzero" d="M67.935 49.184l.033-.098a1.638 1.638 0 0 1 .837 2.002 1.625 1.625 0 0 1-1.878 1.072l-7.936-2.649-2.732 16.35 8.456 2.846c.898.144 1.51.993 1.366 1.896a1.648 1.648 0 0 1-1.886 1.374 1.456 1.456 0 0 1-.52 0l-8.424-2.813a3.272 3.272 0 0 1-2.18-3.63H27.053a8.035 8.035 0 0 1-4.39-1.307L4.74 52.683a1.673 1.673 0 0 1-.586-2.093 8.253 8.253 0 0 1 8.196-4.676 81.405 81.405 0 0 1 15.905 6.246 29.166 29.166 0 0 1 19.514-6.246 27.013 27.013 0 0 1 8.294 2.355 3.052 3.052 0 0 1 3.903-1.766l7.968 2.681zM24.418 61.48a4.698 4.698 0 0 0 2.634.785H53.56l1.757-10.595a22.452 22.452 0 0 0-7.969-2.486 25.945 25.945 0 0 0-20.035 7.98 15.846 15.846 0 0 0 5.887-1.996 28.585 28.585 0 0 1 7.578-2.714A1.66 1.66 0 0 1 42.6 53.86c.065.435-.047.877-.31 1.228-.263.35-.656.58-1.089.636a25.93 25.93 0 0 0-6.505 2.388 19.667 19.667 0 0 1-7.285 2.354 3.837 3.837 0 0 1-3.74-2.387 1.675 1.675 0 0 1 .195-1.733 17.75 17.75 0 0 1 1.691-1.799 66.492 66.492 0 0 0-13.66-5.363 4.38 4.38 0 0 0-4 1.635l16.522 10.66zM8.87 42.644a4.887 4.887 0 0 1-4.783-4.176 4.907 4.907 0 0 1 3.352-5.405c1.323-13.34 11.446-24.096 24.62-26.16a4.922 4.922 0 0 1 1.453-5.863 4.858 4.858 0 0 1 6.008 0 4.922 4.922 0 0 1 1.452 5.862c13.175 2.065 23.298 12.82 24.62 26.16a4.907 4.907 0 0 1 3.352 5.406 4.887 4.887 0 0 1-4.783 4.176H8.872zM34.891 5.04a1.63 1.63 0 0 0 1.626 1.635 1.63 1.63 0 0 0 1.626-1.635 1.63 1.63 0 0 0-1.626-1.635 1.63 1.63 0 0 0-1.626 1.635zm1.626 4.905c-13.104.012-24.154 9.819-25.792 22.89h51.583C60.67 19.763 49.62 9.956 36.517 9.944zM8.87 36.104a1.63 1.63 0 0 0-1.626 1.635 1.63 1.63 0 0 0 1.626 1.635h55.291a1.63 1.63 0 0 0 1.627-1.635 1.63 1.63 0 0 0-1.627-1.635H8.872z"/>
</svg>
