<svg xmlns="http://www.w3.org/2000/svg" width="96" height="96" viewBox="0 0 96 96">
    <path fill="#C1A032" fill-rule="nonzero" d="M83.289 16.243c.016-.15.016-.3 0-.45l-.339-.224a14.986 14.986 0 0 0-4.55-5.161 14.835 14.835 0 0 0-8.611-2.693h-.263a15.065 15.065 0 0 0-11.883 6.32c-.28.39-.39.876-.3 1.347-3.348-.187-6.694-.187-10.116-.187-13.726 0-30.083.973-30.083 5.61-.021.724.299 1.416.865 1.87.091.165.205.316.338.45l27 24.872V78.78c-4.137 0-13.162 1.122-13.162 5.573C32.185 90 45.685 90 47.227 90c1.542 0 15.041 0 15.041-5.61 0-4.451-9.025-5.386-13.161-5.573V47.81l23.051-21.207 7.333 5.087c.321.217.701.335 1.09.336h.49a1.806 1.806 0 0 0 1.202-.748 14.893 14.893 0 0 0 1.016-15.035zm-4.438-.225l-6.881 3.74-.338-8.228c1.66.26 3.24.887 4.625 1.833a11.923 11.923 0 0 1 2.594 2.655zm-10.98-4.339l.301 7.48-6.43-4.338a11.302 11.302 0 0 1 6.13-3.142zm-20.644 7.256c5.227 0 10.266 0 14.703.562l3.309 2.318a168.38 168.38 0 0 1-18.012.86c-8.116.205-16.23-.422-24.217-1.87a118.999 118.999 0 0 1 24.217-1.87zm0 7.481c6.988.05 13.971-.35 20.907-1.197L47.227 44.444 26.394 25.256c6.909.87 13.87 1.258 20.833 1.16zm0 59.844c-3.744.23-7.49-.411-10.943-1.87a24.295 24.295 0 0 1 10.943-1.87c3.744-.23 7.49.41 10.942 1.87a24.295 24.295 0 0 1-10.942 1.87zM79.98 27.463l-6.205-4.301 6.769-3.74c.82 2.657.619 5.523-.564 8.041z"/>
</svg>
