<svg xmlns="http://www.w3.org/2000/svg" width="72" height="72" viewBox="0 0 72 72">
    <path fill="#C1A032" fill-rule="nonzero" d="M62.467 12.182a1.563 1.563 0 0 0 0-.337l-.254-.168A11.24 11.24 0 0 0 58.8 7.806a11.126 11.126 0 0 0-6.458-2.02h-.198a11.299 11.299 0 0 0-8.912 4.74c-.21.293-.292.658-.225 1.01-2.51-.14-5.02-.14-7.587-.14-10.294 0-22.562.73-22.562 4.208a1.735 1.735 0 0 0 .649 1.403c.068.123.153.236.253.336l20.25 18.655v23.086c-3.102 0-9.871.842-9.871 4.18 0 4.236 10.125 4.236 11.281 4.236 1.156 0 11.281 0 11.281-4.208 0-3.338-6.768-4.04-9.87-4.18V35.859l17.287-15.906 5.5 3.815c.241.163.526.251.818.253h.367c.365-.057.69-.26.902-.561a11.17 11.17 0 0 0 .762-11.277zm-3.328-.168l-5.162 2.805-.253-6.172a8.487 8.487 0 0 1 3.469 1.375 8.943 8.943 0 0 1 1.946 1.992zM50.903 8.76l.226 5.61-4.823-3.254a8.477 8.477 0 0 1 4.597-2.356zM35.42 14.202c3.92 0 7.7 0 11.027.42l2.482 1.74c-4.488.456-8.998.671-13.509.645a89.249 89.249 0 0 1-18.163-1.403 89.249 89.249 0 0 1 18.163-1.402zm0 5.61c5.241.037 10.479-.263 15.68-.898L35.42 33.333l-15.624-14.39c5.181.652 10.402.942 15.624.869zm0 44.883a18.221 18.221 0 0 1-8.207-1.403 18.221 18.221 0 0 1 8.207-1.402 18.221 18.221 0 0 1 8.207 1.402 18.221 18.221 0 0 1-8.207 1.403zm24.565-44.098l-4.654-3.226 5.077-2.805a8.374 8.374 0 0 1-.423 6.031z"/>
</svg>
