<svg xmlns="http://www.w3.org/2000/svg" width="36" height="36" viewBox="0 0 36 36">
    <g fill="none" fill-rule="evenodd">
        <path d="M4 4h28v28H4z"/>
        <path fill="#C1A032" fill-rule="nonzero" d="M18 36c9.941 0 18-8.059 18-18S27.941 0 18 0 0 8.059 0 18s8.059 18 18 18zm0-1C8.611 35 1 27.389 1 18S8.611 1 18 1s17 7.611 17 17-7.611 17-17 17z" opacity=".25"/>
        <path fill="#626262" d="M18.837 26.273h-3.104v-7.32h-1.551v-2.521h1.55v-1.514c0-2.058.876-3.282 3.364-3.282h2.072v2.523h-1.295c-.969 0-1.033.353-1.033 1.01l-.004 1.263h2.346l-.275 2.522h-2.07v7.319z"/>
    </g>
</svg>
