<svg xmlns="http://www.w3.org/2000/svg" width="36" height="36" viewBox="0 0 36 36">
    <g fill="none" fill-rule="evenodd">
        <path d="M4 4h28v28H4z"/>
        <path fill="#C1A032" fill-rule="nonzero" d="M18 36c9.941 0 18-8.059 18-18S27.941 0 18 0 0 8.059 0 18s8.059 18 18 18zm0-1C8.611 35 1 27.389 1 18S8.611 1 18 1s17 7.611 17 17-7.611 17-17 17z" opacity=".25"/>
        <path fill="#626262" d="M21.68 12h-7.36A2.322 2.322 0 0 0 12 14.32v7.36c0 1.28 1.04 2.32 2.32 2.32h7.36c1.28 0 2.32-1.04 2.32-2.32v-7.36c0-1.28-1.04-2.32-2.32-2.32zm.666 1.384l.265-.002v2.034l-2.027.007-.007-2.034 1.77-.005zm-6.058 3.384a2.11 2.11 0 0 1 1.712-.88 2.11 2.11 0 0 1 1.712.88c.25.347.4.772.4 1.232A2.115 2.115 0 0 1 18 20.112 2.114 2.114 0 0 1 15.888 18c0-.46.15-.885.4-1.232zm6.543 4.913c0 .634-.516 1.15-1.15 1.15h-7.362c-.634 0-1.15-.516-1.15-1.15v-4.913h1.792A3.257 3.257 0 0 0 14.72 18 3.285 3.285 0 0 0 18 21.282 3.285 3.285 0 0 0 21.282 18c0-.435-.089-.85-.242-1.232h1.79v4.913z"/>
    </g>
</svg>
