<svg xmlns="http://www.w3.org/2000/svg" width="214.727" height="23.684" viewBox="0 0 214.727 23.684">
  <g id="Logo_01" data-name="Logo 01" transform="translate(-0.304 -0.005)">
    <path id="Fill_1" data-name="Fill 1" d="M20.676,23.683,20.642,8.311,14.966,21.318H11.048L5.372,8.311V23.683H0V0H6.588l6.419,14.089L19.426,0H25.98V23.683Z" transform="translate(0.304 0.005)" fill="#fff"/>
    <path id="Fill_2" data-name="Fill 2" d="M6.013,4.729v4.7H17.3v4.73H6.013v4.763H18.885v4.73H0V0H18.514V4.729Z" transform="translate(31.047 0.039)" fill="#fff"/>
    <path id="Fill_3" data-name="Fill 3" d="M6.013,4.729v4.7H17.3v4.73H6.013v4.763H18.885v4.73H0V0H18.514V4.729Z" transform="translate(53.817 0.039)" fill="#fff"/>
    <path id="Fill_4" data-name="Fill 4" d="M13.074,4.865V23.683H7.06V4.865H0V0H20.2V4.865Z" transform="translate(74.459 0.005)" fill="#fff"/>
    <path id="Fill_5" data-name="Fill 5" d="M16.892,23.649,2.7,4.663V23.649H0V0H2.8l14.19,19.021V0h2.668V23.649Z" transform="translate(98.445 0.039)" fill="#fff"/>
    <path id="Fill_6" data-name="Fill 6" d="M2.871,23.65H0L10.608,0h2.8L23.986,23.648h-2.94l-2.634-5.98H5.507l-2.636,5.98ZM11.926,3.074,6.655,15.068H17.264Z" transform="translate(121.857 0.039)" fill="#fff"/>
    <path id="Fill_7" data-name="Fill 7" d="M10.406,2.6V23.649H7.7V2.6H0V0H18.142V2.6Z" transform="translate(144.154 0.039)" fill="#fff"/>
    <path id="Fill_8" data-name="Fill 8" d="M0,23.649H2.7V0H0Z" transform="translate(166.216 0.039)" fill="#fff"/>
    <path id="Fill_9" data-name="Fill 9" d="M9.594,23.649,0,0H2.9l8.143,20.507L19.223,0H22.06L12.4,23.649Z" transform="translate(172.702 0.039)" fill="#fff"/>
    <path id="Fill_10" data-name="Fill 10" d="M2.7,2.6v7.77H14.628v2.6H2.7v8.107H16.486v2.568H0V0H16.048V2.6Z" transform="translate(198.546 0.039)" fill="#fff"/>
  </g>
</svg>
