<svg xmlns="http://www.w3.org/2000/svg" width="96" height="96" viewBox="0 0 96 96">
    <path fill="#C1A032" fill-rule="evenodd" d="M44.656 11.001c-.468-.01-.94.056-1.394.19-2.907.864-4.977 4.213-4.977 9.403 0 4.638-.198 7.208-.492 8.557-.293 1.35-.39 1.303-.875 1.69s-1.617 1.137-2.598 2.752c-.978 1.612-1.899 4.04-2.87 8.312-2.9 10.942-3.5 15.591-5.141 17.497-.822.953-2.031 1.596-4.54 2.343-2.507.747-6.166 1.519-11.429 2.807-.763.184-1.35.934-1.34 1.717l.164 17.987c0 .913.834 1.744 1.75 1.744H37.82c.917 0 1.75-.831 1.75-1.744v-5.287c1.954.2 3.932-.46 5.524-1.5.91-.593 1.726-1.34 2.406-2.18.68.84 1.496 1.587 2.406 2.18 1.592 1.04 3.57 1.7 5.524 1.5v5.287c0 .913.833 1.744 1.75 1.744h26.906c.916 0 1.75-.831 1.75-1.744L86 66.269c.01-.783-.576-1.533-1.34-1.717-5.263-1.288-8.922-2.06-11.43-2.807-2.508-.747-3.717-1.39-4.539-2.343-1.642-1.906-2.238-6.549-5.14-17.497-.972-4.267-1.893-6.701-2.871-8.312-.981-1.615-2.113-2.365-2.598-2.752-.485-.387-.581-.34-.875-1.69-.294-1.349-.492-3.92-.492-8.557 0-5.19-2.07-8.54-4.977-9.402a4.55 4.55 0 0 0-1.394-.19c-1.03.023-2.06.4-2.844 1.09a4.485 4.485 0 0 0-2.844-1.09zm0 3.461c.193.01.358.103.52.245.258.228.574.723.574 1.745v54.26c0 1.155-1.059 2.837-2.598 3.842-4.218 1.98-8.394-.807-10.882-4.251-1.714-2.459-2.814-6.15-1.258-12.319 1.164-3.214 1.86-7.785 3.828-15.207v-.054c.929-4.09 1.818-6.226 2.488-7.33.67-1.105 1.013-1.216 1.778-1.826.764-.61 1.699-1.786 2.105-3.652.406-1.866.574-4.587.574-9.32 0-4.278 1.667-5.807 2.489-6.05.154-.046.267-.088.382-.083zm5.66 0c.116-.005.257.036.41.082.822.244 2.489 1.772 2.489 6.05 0 4.733.168 7.455.574 9.32.406 1.866 1.34 3.042 2.106 3.652.764.61 1.106.722 1.777 1.826.67 1.104 1.56 3.24 2.488 7.331v.054c1.963 7.404 2.67 11.967 3.828 15.18v.027c1.556 6.168.456 9.86-1.258 12.318-2.542 3.173-7.232 6.58-10.91 4.251-1.538-1.005-2.57-2.687-2.57-3.842V16.45c0-1.022.316-1.517.574-1.744.162-.142.3-.237.492-.246v.001zM26.801 63.435c.024 3.748 1.075 6.673 2.598 8.857 2.075 2.977 4.857 4.517 6.671 5.396v4.824H12.637l-.137-14.88c4.498-1.084 7.774-1.815 10.281-2.562 1.581-.47 2.9-.972 4.02-1.635zm41.398 0c1.12.663 2.439 1.164 4.02 1.635 2.507.747 5.756 1.478 10.253 2.562l-.136 14.88H58.93v-4.824c1.815-.88 4.599-2.423 6.672-5.396 1.522-2.184 2.573-5.11 2.597-8.857z"/>
</svg>
