<svg xmlns="http://www.w3.org/2000/svg" width="72" height="72" viewBox="0 0 72 72">
    <g fill="none" fill-rule="evenodd">
        <path fill="#FFF" d="M-196-3021h1440v6555H-196z"/>
        <path fill="#C1A032" d="M33.492 8.25a3.414 3.414 0 0 0-1.046.144c-2.18.647-3.732 3.159-3.732 7.051 0 3.479-.149 5.407-.37 6.418-.22 1.012-.291.977-.655 1.268-.365.29-1.213.853-1.949 2.064-.734 1.209-1.424 3.03-2.153 6.234-2.175 8.206-2.624 11.693-3.855 13.122-.617.715-1.524 1.198-3.405 1.758-1.88.56-4.625 1.139-8.572 2.105a1.35 1.35 0 0 0-1.005 1.288l.123 13.49c0 .685.626 1.308 1.313 1.308h20.18c.687 0 1.312-.623 1.312-1.308v-3.965c1.465.15 2.949-.345 4.142-1.125a7.879 7.879 0 0 0 1.805-1.635c.51.63 1.122 1.19 1.805 1.635 1.194.78 2.677 1.275 4.142 1.125v3.965c0 .685.626 1.308 1.313 1.308h20.18c.687 0 1.312-.623 1.312-1.308l.123-13.49a1.35 1.35 0 0 0-1.005-1.288c-3.947-.966-6.691-1.545-8.572-2.105-1.881-.56-2.788-1.043-3.405-1.758-1.23-1.43-1.678-4.911-3.855-13.122-.728-3.2-1.42-5.026-2.153-6.234-.736-1.211-1.584-1.774-1.948-2.064-.365-.29-.437-.256-.657-1.268-.22-1.011-.369-2.94-.369-6.418 0-3.892-1.552-6.404-3.732-7.051a3.364 3.364 0 0 0-3.179.674 3.364 3.364 0 0 0-2.133-.817zm0 2.597c.144.006.269.077.39.184.193.17.43.542.43 1.308v40.694c0 .867-.794 2.129-1.948 2.882-3.164 1.486-6.296-.604-8.162-3.188-1.285-1.844-2.11-4.613-.943-9.239.873-2.41 1.395-5.839 2.871-11.405v-.04c.697-3.069 1.363-4.67 1.866-5.499.503-.828.76-.911 1.333-1.37.574-.457 1.275-1.339 1.58-2.738.304-1.4.43-3.44.43-6.99 0-3.208 1.25-4.355 1.866-4.538.116-.034.2-.065.287-.061zm4.245 0a1.03 1.03 0 0 1 .308.06c.616.184 1.866 1.33 1.866 4.538 0 3.55.126 5.591.43 6.99.305 1.4 1.006 2.282 1.58 2.74.573.457.83.54 1.333 1.369.503.828 1.17 2.43 1.866 5.498v.04c1.473 5.554 2.002 8.976 2.871 11.385v.02c1.167 4.627.342 7.396-.943 9.24-1.907 2.38-5.424 4.934-8.183 3.188-1.154-.754-1.928-2.015-1.928-2.882V12.338c0-.766.238-1.138.431-1.308.121-.106.225-.177.37-.184zm-17.636 36.73c.018 2.81.806 5.004 1.948 6.642 1.557 2.233 3.643 3.388 5.004 4.047v3.618H9.478l-.103-11.16c3.374-.813 5.83-1.361 7.711-1.921 1.186-.354 2.175-.73 3.015-1.227zm31.048 0c.84.496 1.83.872 3.015 1.226 1.88.56 4.317 1.108 7.69 1.92l-.102 11.16H44.197v-3.617c1.362-.66 3.45-1.817 5.004-4.047 1.142-1.638 1.93-3.832 1.948-6.643z"/>
    </g>
</svg>
