<svg xmlns="http://www.w3.org/2000/svg" width="96" height="96" viewBox="0 0 96 96">
    <path fill="#C1A032" fill-rule="nonzero" d="M48.001 8c-.884 0-1.554.67-1.554 1.554v4.952l-1.554.138c-7.84.68-15.1 4.04-20.732 9.674-5.597 5.598-8.96 12.802-9.67 20.579l-.137 1.548H9.56c-.221 0-.429.046-.61.123-.18.076-.341.182-.49.332-.22.22-.37.49-.43.782-.02.105-.03.214-.03.317v.006c.001.218.046.414.122.598l.016.03a1.54 1.54 0 0 0 1.42.924h4.795l.143 1.543a33.462 33.462 0 0 0 4.584 13.988c.11.185.253.333.44.465l.27.195.18.276c1.3 2.024 2.792 3.933 4.517 5.658a33.686 33.686 0 0 0 6.49 5.054l.22.128.168.189c.138.152.271.26.403.332a33.482 33.482 0 0 0 13.124 3.97l1.554.139v4.952c0 .884.67 1.554 1.554 1.554a1.533 1.533 0 0 0 1.554-1.554v-4.952l1.554-.138c4.6-.406 9.09-1.76 13.124-3.971.132-.073.265-.18.403-.332l.168-.19.22-.127a33.643 33.643 0 0 0 6.49-5.054c1.725-1.725 3.218-3.634 4.517-5.658l.18-.276.27-.195c.187-.132.33-.28.44-.465A33.462 33.462 0 0 0 81.504 51.1l.143-1.543h4.795c.439 0 .82-.17 1.103-.454.284-.284.455-.664.455-1.104 0-.103-.01-.212-.03-.317-.021-.1-.052-.19-.092-.286a1.564 1.564 0 0 0-.333-.496h-.005a1.483 1.483 0 0 0-.49-.332 1.565 1.565 0 0 0-.61-.123h-4.794l-.138-1.548c-.71-7.778-4.072-14.981-9.669-20.579-5.632-5.632-12.894-8.993-20.732-9.674l-1.554-.138V9.554c0-.884-.67-1.554-1.554-1.554H48zm-1.558 9.617v8.554c0 .437.171.812.46 1.098.156.156.324.267.49.338.097.04.197.072.293.092.096.02.207.03.322.03a1.544 1.544 0 0 0 1.094-.454v-.006c.288-.288.46-.661.46-1.098v-8.554l1.902.23c13.912 1.662 24.967 12.765 26.549 26.701l.214 1.896h-8.398c-.103 0-.212.01-.317.03a1.564 1.564 0 0 0-.783.43c-.287.288-.46.662-.46 1.098 0 .437.169.802.46 1.094.156.156.325.267.491.338.096.04.196.072.292.091.105.021.214.031.317.031h8.398l-.214 1.896C76.429 65.386 65.377 76.49 51.464 78.153l-1.902.23v-8.554c0-.437-.17-.812-.46-1.098v-.006a1.54 1.54 0 0 0-.465-.317l-.03-.015a1.527 1.527 0 0 0-.278-.088l-.01-.005h-.005c-.1-.021-.208-.03-.317-.03-.433 0-.803.169-1.094.46-.287.287-.46.661-.46 1.097v8.554l-1.901-.229c-13.913-1.662-24.967-12.766-26.549-26.7l-.214-1.896h8.392c.439 0 .82-.17 1.103-.454v-.006c.292-.29.46-.657.46-1.094 0-.436-.17-.812-.46-1.098v-.006a1.54 1.54 0 0 0-1.098-.454H17.78l.214-1.896c1.584-13.934 12.639-25.038 26.549-26.701l1.9-.23z"/>
</svg>
