<svg xmlns="http://www.w3.org/2000/svg" width="79" height="52" viewBox="0 0 79 52">
    <path fill="#C1A032" fill-rule="nonzero" d="M52.949 0C67.314 0 79 11.663 79 26S67.313 52 52.949 52c-14.365 0-26.051-11.664-26.051-26 0-8.273 4.002-16.128 10.705-21.012a1.962 1.962 0 0 1 2.738.427 1.954 1.954 0 0 1-.427 2.733c-5.696 4.15-9.096 10.824-9.096 17.852 0 12.18 9.929 22.088 22.132 22.088 12.203 0 22.13-9.909 22.13-22.088 0-11.52-8.883-21.01-20.171-22.002v7.98c0 1.08-.878 1.956-1.96 1.956a1.958 1.958 0 0 1-1.96-1.956V1.956c0-1.08.878-1.956 1.96-1.956zM39.823 18.654a1.96 1.96 0 0 1 2.68-.705l10.942 6.361a1.954 1.954 0 0 1 .707 2.675 1.958 1.958 0 0 1-2.68.705L40.53 21.329a1.954 1.954 0 0 1-.707-2.675zM5.178 13.097a1.725 1.725 0 0 1-1.726-1.722c0-.951.774-1.723 1.726-1.723h18.125c.953 0 1.726.772 1.726 1.723 0 .95-.773 1.722-1.726 1.722H5.178zm-3.452 9.178A1.725 1.725 0 0 1 0 20.552c0-.951.773-1.723 1.726-1.723h18.125c.953 0 1.726.772 1.726 1.723 0 .95-.773 1.723-1.726 1.723H1.726zm19.85 7.454c0 .952-.772 1.723-1.725 1.723H1.726A1.725 1.725 0 0 1 0 29.729c0-.951.773-1.723 1.726-1.723h18.125c.953 0 1.726.772 1.726 1.723zm3.453 9.177c0 .952-.773 1.723-1.726 1.723H5.178a1.725 1.725 0 0 1-1.726-1.723c0-.95.774-1.723 1.726-1.723h18.125c.953 0 1.726.772 1.726 1.723z"/>
</svg>
