<svg xmlns="http://www.w3.org/2000/svg" xmlns:xlink="http://www.w3.org/1999/xlink" width="96" height="96" viewBox="0 0 96 96">
    <defs>
        <path id="b" d="M0 0h336v336H0z"/>
        <filter id="a" width="150.6%" height="150.6%" x="-25.3%" y="-19.3%" filterUnits="objectBoundingBox">
            <feMorphology in="SourceAlpha" operator="dilate" radius="5" result="shadowSpreadOuter1"/>
            <feOffset dy="20" in="shadowSpreadOuter1" result="shadowOffsetOuter1"/>
            <feGaussianBlur in="shadowOffsetOuter1" result="shadowBlurOuter1" stdDeviation="20"/>
            <feColorMatrix in="shadowBlurOuter1" values="0 0 0 0 0.880075468 0 0 0 0 0.880075468 0 0 0 0 0.880075468 0 0 0 0.2 0"/>
        </filter>
    </defs>
    <g fill="none" fill-rule="evenodd">
        <path fill="#FFF" d="M-1032-4767H408v6555h-1440z"/>
        <g transform="translate(-120 -80)">
            <use fill="#000" filter="url(#a)" xlink:href="#b"/>
            <use fill="#FFF" xlink:href="#b"/>
        </g>
        <path fill="#C1A032" fill-rule="nonzero" d="M84.4 71.714h-2.8V35.67c3.198-.638 5.6-3.422 5.6-6.764 0-3.814-3.133-6.905-7-6.905s-7 3.09-7 6.905c0 .674.129 1.314.31 1.928C67.663 33.802 58.658 37.19 48 37.19c-10.643 0-19.653-3.391-25.508-6.363.18-.616.308-1.251.308-1.922 0-3.814-3.133-6.905-7-6.905s-7 3.09-7 6.905c0 3.342 2.402 6.126 5.6 6.764v36.045h-2.8v5.524H6V80h19.6v-2.762H20v-5.524h-2.8V35.67c1.59-.318 2.96-1.188 3.96-2.37 6.123 3.126 15.528 6.653 26.84 6.653s20.717-3.527 26.84-6.653c1 1.185 2.37 2.052 3.96 2.37v36.045H76v5.524h-5.6V80H90v-2.762h-5.6v-5.524zm-67.2 5.524h-2.8v-2.762h2.8v2.762zm-1.4-44.19c-2.318 0-4.2-1.856-4.2-4.143s1.882-4.143 4.2-4.143c2.318 0 4.2 1.856 4.2 4.143s-1.882 4.143-4.2 4.143zM76 28.905c0-2.287 1.882-4.143 4.2-4.143 2.318 0 4.2 1.856 4.2 4.143s-1.882 4.143-4.2 4.143c-2.318 0-4.2-1.856-4.2-4.143zm2.8 48.333v-2.762h2.8v2.762h-2.8z"/>
    </g>
</svg>
