<svg xmlns="http://www.w3.org/2000/svg" width="62" height="60" viewBox="0 0 62 60">
    <path fill="#C5AA4F" fill-rule="nonzero" d="M56.54 24.715c7.545 8.364 7.235 21.145-.71 29.135A21.013 21.013 0 0 1 40.903 60h-.117a21.472 21.472 0 0 1-15.104-6.3L10.678 38.743a5.93 5.93 0 0 1 0-8.376 5.789 5.789 0 0 1 2.592-1.513l-1.034-1.03a5.921 5.921 0 0 1-1.543-5.688 5.942 5.942 0 0 1 4.136-4.21l-.342-.34a5.912 5.912 0 0 1-.182-8.2 5.956 5.956 0 0 1 8.209-.526 5.813 5.813 0 0 1 1.525-2.618 5.981 5.981 0 0 1 8.41 0l7.17 7.155a5.514 5.514 0 0 1 6.55.923l9.478 9.448c.309.3.609.615.892.948zM53.646 51.68c6.779-6.858 7.024-17.794.558-24.947a9.253 9.253 0 0 0-.75-.831l-9.452-9.465a2.506 2.506 0 0 0-3.194.281 2.487 2.487 0 0 0-.29 3.184l5 4.986a1.518 1.518 0 0 1-.158 2.285c-.06.049-.115.101-.166.158a5.448 5.448 0 0 0-.35 7.396 1.51 1.51 0 0 1-.192 2.136 1.504 1.504 0 0 1-2.042-.1.566.566 0 0 1-.1-.1 8.457 8.457 0 0 1-.184-10.67l-3.934-3.922a5.48 5.48 0 0 1-.925-6.532l-7.169-7.155a2.99 2.99 0 0 0-4.11 0 2.894 2.894 0 0 0 0 4.097l3.877 3.864 7.502 7.48a1.513 1.513 0 0 1 0 2.143 1.524 1.524 0 0 1-2.15 0l-7.503-7.479-3.834-3.822-3.334-3.325a3.007 3.007 0 0 0-4.118 0 2.91 2.91 0 0 0 0 4.097l16.888 16.837a1.51 1.51 0 0 1 .004 2.14 1.521 1.521 0 0 1-2.147.004L18.496 21.58a2.99 2.99 0 0 0-4.11 0 2.894 2.894 0 0 0 0 4.098l4.702 4.687 10.453 10.429a1.51 1.51 0 0 1-.057 2.079 1.52 1.52 0 0 1-2.085.057L16.904 32.485a3.007 3.007 0 0 0-4.11 0 2.864 2.864 0 0 0-.833 2.052c-.01.766.291 1.503.834 2.045L27.799 51.54a18.366 18.366 0 0 0 12.97 5.402 17.89 17.89 0 0 0 12.878-5.26zM49.029 13.43a1.52 1.52 0 0 1-1.073-.443 1.51 1.51 0 0 1-.444-1.07 3.712 3.712 0 0 0-3.71-3.697c-.84 0-1.52-.68-1.52-1.517 0-.837.68-1.516 1.52-1.516 3.728.004 6.748 3.015 6.752 6.73 0 .403-.16.79-.447 1.073a1.52 1.52 0 0 1-1.078.44zm5.201-.315a1.515 1.515 0 0 1-1.517-1.513c-.004-4.733-3.854-8.568-8.602-8.568-.543 0-1.046-.289-1.317-.758a1.513 1.513 0 0 1 0-1.517C43.065.29 43.568 0 44.11 0c6.445 0 11.67 5.209 11.67 11.634a1.51 1.51 0 0 1-.468 1.06 1.52 1.52 0 0 1-1.083.42zM11.986 50.36c-3.727-.005-6.747-3.016-6.751-6.731 0-.838.68-1.517 1.52-1.517.841 0 1.522.679 1.522 1.517a3.712 3.712 0 0 0 3.71 3.698c.84 0 1.52.679 1.52 1.516 0 .838-.68 1.517-1.52 1.517zm-.316 5.185C5.225 55.545 0 50.337 0 43.911c0-.837.681-1.516 1.521-1.516.84 0 1.521.679 1.521 1.516a8.563 8.563 0 0 0 2.52 6.09 8.615 8.615 0 0 0 6.108 2.511c.84 0 1.52.68 1.52 1.517 0 .837-.68 1.516-1.52 1.516z"/>
</svg>
